<mxfile host="app.diagrams.net" modified="2022-03-23T14:09:52.771Z" agent="5.0 (X11; Linux x86_64) AppleWebKit/537.36 (KHTML, like Gecko) Chrome/99.0.4844.83 Safari/537.36" etag="xedzhobPsyaTFM-6FTbK" version="17.1.4" type="github">
  <diagram id="PytP8Wswj9kthYlsGdSM" name="Page-1">
    <mxGraphModel dx="2375" dy="628" grid="0" gridSize="10" guides="1" tooltips="1" connect="1" arrows="1" fold="1" page="0" pageScale="1" pageWidth="827" pageHeight="1169" background="#B0E3E6" math="0" shadow="1">
      <root>
        <mxCell id="0" />
        <mxCell id="1" parent="0" />
        <mxCell id="hGJVld8CSl8fJOH9gkfD-1" value="&lt;span data-lucid-type=&quot;application/vnd.lucid.text&quot; data-lucid-content=&quot;{&amp;#34;t&amp;#34;:&amp;#34;STOP&amp;#34;,&amp;#34;m&amp;#34;:[{&amp;#34;s&amp;#34;:0,&amp;#34;n&amp;#34;:&amp;#34;b&amp;#34;,&amp;#34;v&amp;#34;:true,&amp;#34;e&amp;#34;:4},{&amp;#34;s&amp;#34;:0,&amp;#34;n&amp;#34;:&amp;#34;c&amp;#34;,&amp;#34;v&amp;#34;:&amp;#34;3a414aff&amp;#34;,&amp;#34;e&amp;#34;:4},{&amp;#34;s&amp;#34;:0,&amp;#34;n&amp;#34;:&amp;#34;f&amp;#34;,&amp;#34;v&amp;#34;:&amp;#34;Orbitron&amp;#34;,&amp;#34;e&amp;#34;:4},{&amp;#34;s&amp;#34;:0,&amp;#34;n&amp;#34;:&amp;#34;fc&amp;#34;,&amp;#34;v&amp;#34;:&amp;#34;Bold&amp;#34;,&amp;#34;e&amp;#34;:4},{&amp;#34;s&amp;#34;:0,&amp;#34;n&amp;#34;:&amp;#34;fid&amp;#34;,&amp;#34;v&amp;#34;:1706,&amp;#34;e&amp;#34;:4},{&amp;#34;s&amp;#34;:0,&amp;#34;n&amp;#34;:&amp;#34;s&amp;#34;,&amp;#34;v&amp;#34;:22.222222222222218,&amp;#34;e&amp;#34;:4}]}&quot;&gt;&lt;span style=&quot;font-weight: bold ; color: #3a414a ; font-size: 16.666666666666664px&quot;&gt;START&lt;/span&gt;&lt;/span&gt;" style="strokeWidth=4;html=1;shape=mxgraph.flowchart.terminator;whiteSpace=wrap;fillColor=#9CFF2B;fontColor=#ffffff;strokeColor=none;shadow=1;sketch=0;rounded=0;gradientColor=none;" vertex="1" parent="1">
          <mxGeometry x="247" y="72" width="100" height="50" as="geometry" />
        </mxCell>
        <mxCell id="hGJVld8CSl8fJOH9gkfD-48" value="" style="edgeStyle=orthogonalEdgeStyle;curved=0;rounded=1;sketch=0;orthogonalLoop=1;jettySize=auto;html=1;fontFamily=Verdana;fontColor=#1A1A1A;strokeColor=#182E3E;" edge="1" parent="1" source="hGJVld8CSl8fJOH9gkfD-2" target="hGJVld8CSl8fJOH9gkfD-5">
          <mxGeometry relative="1" as="geometry" />
        </mxCell>
        <mxCell id="hGJVld8CSl8fJOH9gkfD-2" value="&lt;span data-lucid-type=&quot;application/vnd.lucid.text&quot; data-lucid-content=&quot;{&amp;#34;t&amp;#34;:&amp;#34;print(&#39;Hello {name}&#39;)&amp;#34;,&amp;#34;m&amp;#34;:[{&amp;#34;s&amp;#34;:0,&amp;#34;n&amp;#34;:&amp;#34;a&amp;#34;,&amp;#34;v&amp;#34;:&amp;#34;center&amp;#34;},{&amp;#34;s&amp;#34;:0,&amp;#34;n&amp;#34;:&amp;#34;f&amp;#34;,&amp;#34;v&amp;#34;:&amp;#34;Orbitron&amp;#34;,&amp;#34;e&amp;#34;:21},{&amp;#34;s&amp;#34;:0,&amp;#34;n&amp;#34;:&amp;#34;fc&amp;#34;,&amp;#34;v&amp;#34;:&amp;#34;Bold&amp;#34;,&amp;#34;e&amp;#34;:21},{&amp;#34;s&amp;#34;:0,&amp;#34;n&amp;#34;:&amp;#34;fid&amp;#34;,&amp;#34;v&amp;#34;:1706,&amp;#34;e&amp;#34;:21},{&amp;#34;s&amp;#34;:0,&amp;#34;n&amp;#34;:&amp;#34;b&amp;#34;,&amp;#34;v&amp;#34;:true,&amp;#34;e&amp;#34;:21},{&amp;#34;s&amp;#34;:0,&amp;#34;n&amp;#34;:&amp;#34;s&amp;#34;,&amp;#34;v&amp;#34;:22.222222222222218,&amp;#34;e&amp;#34;:21},{&amp;#34;s&amp;#34;:0,&amp;#34;n&amp;#34;:&amp;#34;c&amp;#34;,&amp;#34;v&amp;#34;:&amp;#34;3a414aff&amp;#34;,&amp;#34;e&amp;#34;:21}]}&quot;&gt;&lt;span style=&quot;font-weight: bold ; font-size: 16.6667px ; color: rgb(58 , 65 , 74)&quot;&gt;print(&#39;&lt;/span&gt;&lt;font face=&quot;Verdana&quot;&gt;&lt;span style=&quot;color: rgb(0 , 0 , 0) ; font-size: 14px ; letter-spacing: 0.1px ; text-align: left&quot;&gt;Write&amp;nbsp;how&amp;nbsp;many&amp;nbsp;cups of&amp;nbsp;&lt;br&gt;coffee&amp;nbsp;you&amp;nbsp;will&amp;nbsp;need:&lt;/span&gt;&lt;span style=&quot;font-weight: bold ; font-size: 16.6667px ; color: rgb(58 , 65 , 74)&quot;&gt;&#39;)&lt;/span&gt;&lt;/font&gt;&lt;/span&gt;" style="shape=parallelogram;html=1;strokeWidth=2;perimeter=parallelogramPerimeter;whiteSpace=wrap;rounded=1;arcSize=12;size=0.23;labelBackgroundColor=none;labelBorderColor=none;comic=0;fontFamily=Helvetica;fontSize=12;fillColor=#dae8fc;strokeColor=#6c8ebf;sketch=0;fontColor=#1A1A1A;" vertex="1" parent="1">
          <mxGeometry x="-1105" y="1118" width="332" height="45" as="geometry" />
        </mxCell>
        <mxCell id="hGJVld8CSl8fJOH9gkfD-49" value="" style="edgeStyle=orthogonalEdgeStyle;curved=0;rounded=1;sketch=0;orthogonalLoop=1;jettySize=auto;html=1;fontFamily=Verdana;fontColor=#1A1A1A;strokeColor=#182E3E;" edge="1" parent="1" source="hGJVld8CSl8fJOH9gkfD-5" target="hGJVld8CSl8fJOH9gkfD-9">
          <mxGeometry relative="1" as="geometry" />
        </mxCell>
        <mxCell id="hGJVld8CSl8fJOH9gkfD-5" value="&lt;span data-lucid-type=&quot;application/vnd.lucid.text&quot; data-lucid-content=&quot;{&amp;#34;t&amp;#34;:&amp;#34;print(&#39;Hello {name}&#39;)&amp;#34;,&amp;#34;m&amp;#34;:[{&amp;#34;s&amp;#34;:0,&amp;#34;n&amp;#34;:&amp;#34;a&amp;#34;,&amp;#34;v&amp;#34;:&amp;#34;center&amp;#34;},{&amp;#34;s&amp;#34;:0,&amp;#34;n&amp;#34;:&amp;#34;f&amp;#34;,&amp;#34;v&amp;#34;:&amp;#34;Orbitron&amp;#34;,&amp;#34;e&amp;#34;:21},{&amp;#34;s&amp;#34;:0,&amp;#34;n&amp;#34;:&amp;#34;fc&amp;#34;,&amp;#34;v&amp;#34;:&amp;#34;Bold&amp;#34;,&amp;#34;e&amp;#34;:21},{&amp;#34;s&amp;#34;:0,&amp;#34;n&amp;#34;:&amp;#34;fid&amp;#34;,&amp;#34;v&amp;#34;:1706,&amp;#34;e&amp;#34;:21},{&amp;#34;s&amp;#34;:0,&amp;#34;n&amp;#34;:&amp;#34;b&amp;#34;,&amp;#34;v&amp;#34;:true,&amp;#34;e&amp;#34;:21},{&amp;#34;s&amp;#34;:0,&amp;#34;n&amp;#34;:&amp;#34;s&amp;#34;,&amp;#34;v&amp;#34;:22.222222222222218,&amp;#34;e&amp;#34;:21},{&amp;#34;s&amp;#34;:0,&amp;#34;n&amp;#34;:&amp;#34;c&amp;#34;,&amp;#34;v&amp;#34;:&amp;#34;3a414aff&amp;#34;,&amp;#34;e&amp;#34;:21}]}&quot;&gt;&lt;span style=&quot;font-weight: bold ; font-size: 16.6667px ; color: rgb(58 , 65 , 74)&quot;&gt;read input&lt;/span&gt;&lt;/span&gt;" style="shape=parallelogram;html=1;strokeWidth=2;perimeter=parallelogramPerimeter;whiteSpace=wrap;rounded=1;arcSize=12;size=0.23;labelBackgroundColor=none;labelBorderColor=none;comic=0;fontFamily=Helvetica;fontSize=12;fillColor=#dae8fc;strokeColor=#6c8ebf;sketch=0;fontColor=#1A1A1A;" vertex="1" parent="1">
          <mxGeometry x="-1069.5" y="1203" width="261" height="33" as="geometry" />
        </mxCell>
        <mxCell id="hGJVld8CSl8fJOH9gkfD-18" style="edgeStyle=orthogonalEdgeStyle;curved=0;rounded=1;sketch=0;orthogonalLoop=1;jettySize=auto;html=1;fontFamily=Verdana;fontColor=#1A1A1A;strokeColor=#182E3E;" edge="1" parent="1" source="hGJVld8CSl8fJOH9gkfD-7" target="hGJVld8CSl8fJOH9gkfD-11">
          <mxGeometry relative="1" as="geometry" />
        </mxCell>
        <mxCell id="hGJVld8CSl8fJOH9gkfD-7" value="&lt;span data-lucid-type=&quot;application/vnd.lucid.text&quot; data-lucid-content=&quot;{&amp;#34;t&amp;#34;:&amp;#34;set starting_poin = 0&amp;#34;,&amp;#34;m&amp;#34;:[{&amp;#34;s&amp;#34;:0,&amp;#34;n&amp;#34;:&amp;#34;a&amp;#34;,&amp;#34;v&amp;#34;:&amp;#34;center&amp;#34;},{&amp;#34;s&amp;#34;:0,&amp;#34;n&amp;#34;:&amp;#34;p&amp;#34;,&amp;#34;v&amp;#34;:1.2},{&amp;#34;s&amp;#34;:0,&amp;#34;n&amp;#34;:&amp;#34;b&amp;#34;,&amp;#34;v&amp;#34;:true,&amp;#34;e&amp;#34;:21},{&amp;#34;s&amp;#34;:0,&amp;#34;n&amp;#34;:&amp;#34;c&amp;#34;,&amp;#34;v&amp;#34;:&amp;#34;3a414aff&amp;#34;,&amp;#34;e&amp;#34;:21},{&amp;#34;s&amp;#34;:0,&amp;#34;n&amp;#34;:&amp;#34;f&amp;#34;,&amp;#34;v&amp;#34;:&amp;#34;Orbitron&amp;#34;,&amp;#34;e&amp;#34;:21},{&amp;#34;s&amp;#34;:0,&amp;#34;n&amp;#34;:&amp;#34;fc&amp;#34;,&amp;#34;v&amp;#34;:&amp;#34;Bold&amp;#34;,&amp;#34;e&amp;#34;:21},{&amp;#34;s&amp;#34;:0,&amp;#34;n&amp;#34;:&amp;#34;fid&amp;#34;,&amp;#34;v&amp;#34;:1706,&amp;#34;e&amp;#34;:21},{&amp;#34;s&amp;#34;:0,&amp;#34;n&amp;#34;:&amp;#34;s&amp;#34;,&amp;#34;v&amp;#34;:22.222222222222218,&amp;#34;e&amp;#34;:21}]}&quot;&gt;&lt;font color=&quot;#3a414a&quot;&gt;&lt;span style=&quot;font-size: 16.6667px&quot;&gt;&lt;b&gt;store ingredients&amp;nbsp;needed for 1 cup of coffee:&lt;/b&gt;&lt;/span&gt;&lt;/font&gt;&lt;br&gt;&lt;font color=&quot;#3a414a&quot;&gt;&lt;span style=&quot;font-size: 16.6667px&quot;&gt;&lt;b&gt;200ml of water, 50ml of milk, 15g of coffee&lt;/b&gt;&lt;/span&gt;&lt;/font&gt;&lt;br&gt;&lt;/span&gt;" style="rounded=1;whiteSpace=wrap;html=1;absoluteArcSize=1;arcSize=14;strokeWidth=2;fillColor=#dae8fc;strokeColor=#6c8ebf;labelBackgroundColor=none;labelBorderColor=none;fontFamily=Helvetica;fontSize=14;fontColor=default;sketch=0;" vertex="1" parent="1">
          <mxGeometry x="1026.75" y="277" width="226" height="93" as="geometry" />
        </mxCell>
        <mxCell id="hGJVld8CSl8fJOH9gkfD-9" value="&lt;span data-lucid-type=&quot;application/vnd.lucid.text&quot; data-lucid-content=&quot;{&amp;#34;t&amp;#34;:&amp;#34;set starting_poin = 0&amp;#34;,&amp;#34;m&amp;#34;:[{&amp;#34;s&amp;#34;:0,&amp;#34;n&amp;#34;:&amp;#34;a&amp;#34;,&amp;#34;v&amp;#34;:&amp;#34;center&amp;#34;},{&amp;#34;s&amp;#34;:0,&amp;#34;n&amp;#34;:&amp;#34;p&amp;#34;,&amp;#34;v&amp;#34;:1.2},{&amp;#34;s&amp;#34;:0,&amp;#34;n&amp;#34;:&amp;#34;b&amp;#34;,&amp;#34;v&amp;#34;:true,&amp;#34;e&amp;#34;:21},{&amp;#34;s&amp;#34;:0,&amp;#34;n&amp;#34;:&amp;#34;c&amp;#34;,&amp;#34;v&amp;#34;:&amp;#34;3a414aff&amp;#34;,&amp;#34;e&amp;#34;:21},{&amp;#34;s&amp;#34;:0,&amp;#34;n&amp;#34;:&amp;#34;f&amp;#34;,&amp;#34;v&amp;#34;:&amp;#34;Orbitron&amp;#34;,&amp;#34;e&amp;#34;:21},{&amp;#34;s&amp;#34;:0,&amp;#34;n&amp;#34;:&amp;#34;fc&amp;#34;,&amp;#34;v&amp;#34;:&amp;#34;Bold&amp;#34;,&amp;#34;e&amp;#34;:21},{&amp;#34;s&amp;#34;:0,&amp;#34;n&amp;#34;:&amp;#34;fid&amp;#34;,&amp;#34;v&amp;#34;:1706,&amp;#34;e&amp;#34;:21},{&amp;#34;s&amp;#34;:0,&amp;#34;n&amp;#34;:&amp;#34;s&amp;#34;,&amp;#34;v&amp;#34;:22.222222222222218,&amp;#34;e&amp;#34;:21}]}&quot;&gt;&lt;span style=&quot;font-weight: bold ; color: rgb(58 , 65 , 74) ; font-size: 16.6667px&quot;&gt;set input to number_of_coffees&lt;/span&gt;&lt;/span&gt;" style="rounded=1;whiteSpace=wrap;html=1;absoluteArcSize=1;arcSize=14;strokeWidth=2;fillColor=#dae8fc;strokeColor=#6c8ebf;labelBackgroundColor=none;labelBorderColor=none;fontFamily=Helvetica;fontSize=14;fontColor=default;sketch=0;" vertex="1" parent="1">
          <mxGeometry x="-1027" y="1268" width="176" height="60" as="geometry" />
        </mxCell>
        <mxCell id="hGJVld8CSl8fJOH9gkfD-10" value="&lt;span style=&quot;box-sizing: border-box ; color: rgb(0 , 0 , 0) ; font-family: , &amp;#34;menlo&amp;#34; , &amp;#34;monaco&amp;#34; , &amp;#34;consolas&amp;#34; , &amp;#34;liberation mono&amp;#34; , &amp;#34;courier new&amp;#34; , monospace ; font-size: 14px ; letter-spacing: 0.1px ; text-align: left&quot;&gt;&lt;span style=&quot;color: rgb(58 , 65 , 74) ; font-size: 16.6667px ; font-weight: 700 ; letter-spacing: normal ; text-align: center&quot;&gt;print&lt;/span&gt;(f&#39;For {number_of_coffees} cups&amp;nbsp;of&amp;nbsp;coffee&amp;nbsp;you&amp;nbsp;will&amp;nbsp;need:&lt;/span&gt;&lt;br style=&quot;box-sizing: border-box ; color: rgb(0 , 0 , 0) ; font-family: , &amp;#34;menlo&amp;#34; , &amp;#34;monaco&amp;#34; , &amp;#34;consolas&amp;#34; , &amp;#34;liberation mono&amp;#34; , &amp;#34;courier new&amp;#34; , monospace ; font-size: 14px ; letter-spacing: 0.1px ; text-align: left&quot;&gt;&lt;span style=&quot;box-sizing: border-box ; color: rgb(0 , 0 , 0) ; font-family: , &amp;#34;menlo&amp;#34; , &amp;#34;monaco&amp;#34; , &amp;#34;consolas&amp;#34; , &amp;#34;liberation mono&amp;#34; , &amp;#34;courier new&amp;#34; , monospace ; font-size: 14px ; letter-spacing: 0.1px ; text-align: left&quot;&gt;{water} ml&amp;nbsp;of&amp;nbsp;water&lt;/span&gt;&lt;br style=&quot;box-sizing: border-box ; color: rgb(0 , 0 , 0) ; font-family: , &amp;#34;menlo&amp;#34; , &amp;#34;monaco&amp;#34; , &amp;#34;consolas&amp;#34; , &amp;#34;liberation mono&amp;#34; , &amp;#34;courier new&amp;#34; , monospace ; font-size: 14px ; letter-spacing: 0.1px ; text-align: left&quot;&gt;&lt;span style=&quot;box-sizing: border-box ; color: rgb(0 , 0 , 0) ; font-family: , &amp;#34;menlo&amp;#34; , &amp;#34;monaco&amp;#34; , &amp;#34;consolas&amp;#34; , &amp;#34;liberation mono&amp;#34; , &amp;#34;courier new&amp;#34; , monospace ; font-size: 14px ; letter-spacing: 0.1px ; text-align: left&quot;&gt;{milk} ml&amp;nbsp;of&amp;nbsp;milk&lt;/span&gt;&lt;br style=&quot;box-sizing: border-box ; color: rgb(0 , 0 , 0) ; font-family: , &amp;#34;menlo&amp;#34; , &amp;#34;monaco&amp;#34; , &amp;#34;consolas&amp;#34; , &amp;#34;liberation mono&amp;#34; , &amp;#34;courier new&amp;#34; , monospace ; font-size: 14px ; letter-spacing: 0.1px ; text-align: left&quot;&gt;&lt;span style=&quot;box-sizing: border-box ; color: rgb(0 , 0 , 0) ; font-family: , &amp;#34;menlo&amp;#34; , &amp;#34;monaco&amp;#34; , &amp;#34;consolas&amp;#34; , &amp;#34;liberation mono&amp;#34; , &amp;#34;courier new&amp;#34; , monospace ; font-size: 14px ; letter-spacing: 0.1px ; text-align: left&quot;&gt;{coffee} g&amp;nbsp;of&amp;nbsp;coffee&amp;nbsp;beans&#39;)&lt;/span&gt;" style="shape=parallelogram;html=1;strokeWidth=2;perimeter=parallelogramPerimeter;whiteSpace=wrap;rounded=1;arcSize=12;size=0.23;labelBackgroundColor=none;labelBorderColor=none;comic=0;fontFamily=Helvetica;fontSize=12;fillColor=#dae8fc;strokeColor=#6c8ebf;sketch=0;fontColor=#1A1A1A;spacing=0;spacingRight=-70;" vertex="1" parent="1">
          <mxGeometry x="866" y="697" width="547.5" height="79" as="geometry" />
        </mxCell>
        <mxCell id="hGJVld8CSl8fJOH9gkfD-20" style="edgeStyle=orthogonalEdgeStyle;curved=0;rounded=1;sketch=0;orthogonalLoop=1;jettySize=auto;html=1;fontFamily=Verdana;fontColor=#1A1A1A;strokeColor=#182E3E;" edge="1" parent="1" source="hGJVld8CSl8fJOH9gkfD-11" target="hGJVld8CSl8fJOH9gkfD-12">
          <mxGeometry relative="1" as="geometry" />
        </mxCell>
        <mxCell id="hGJVld8CSl8fJOH9gkfD-11" value="&lt;span data-lucid-type=&quot;application/vnd.lucid.text&quot; data-lucid-content=&quot;{&amp;#34;t&amp;#34;:&amp;#34;set starting_poin = 0&amp;#34;,&amp;#34;m&amp;#34;:[{&amp;#34;s&amp;#34;:0,&amp;#34;n&amp;#34;:&amp;#34;a&amp;#34;,&amp;#34;v&amp;#34;:&amp;#34;center&amp;#34;},{&amp;#34;s&amp;#34;:0,&amp;#34;n&amp;#34;:&amp;#34;p&amp;#34;,&amp;#34;v&amp;#34;:1.2},{&amp;#34;s&amp;#34;:0,&amp;#34;n&amp;#34;:&amp;#34;b&amp;#34;,&amp;#34;v&amp;#34;:true,&amp;#34;e&amp;#34;:21},{&amp;#34;s&amp;#34;:0,&amp;#34;n&amp;#34;:&amp;#34;c&amp;#34;,&amp;#34;v&amp;#34;:&amp;#34;3a414aff&amp;#34;,&amp;#34;e&amp;#34;:21},{&amp;#34;s&amp;#34;:0,&amp;#34;n&amp;#34;:&amp;#34;f&amp;#34;,&amp;#34;v&amp;#34;:&amp;#34;Orbitron&amp;#34;,&amp;#34;e&amp;#34;:21},{&amp;#34;s&amp;#34;:0,&amp;#34;n&amp;#34;:&amp;#34;fc&amp;#34;,&amp;#34;v&amp;#34;:&amp;#34;Bold&amp;#34;,&amp;#34;e&amp;#34;:21},{&amp;#34;s&amp;#34;:0,&amp;#34;n&amp;#34;:&amp;#34;fid&amp;#34;,&amp;#34;v&amp;#34;:1706,&amp;#34;e&amp;#34;:21},{&amp;#34;s&amp;#34;:0,&amp;#34;n&amp;#34;:&amp;#34;s&amp;#34;,&amp;#34;v&amp;#34;:22.222222222222218,&amp;#34;e&amp;#34;:21}]}&quot;&gt;&lt;span style=&quot;font-weight: bold ; color: rgb(58 , 65 , 74) ; font-size: 16.6667px&quot;&gt;set water = 200 * number_of_coffees&lt;/span&gt;&lt;/span&gt;" style="rounded=1;whiteSpace=wrap;html=1;absoluteArcSize=1;arcSize=14;strokeWidth=2;fillColor=#dae8fc;strokeColor=#6c8ebf;labelBackgroundColor=none;labelBorderColor=none;fontFamily=Helvetica;fontSize=14;fontColor=default;sketch=0;" vertex="1" parent="1">
          <mxGeometry x="1051.75" y="410" width="176" height="60" as="geometry" />
        </mxCell>
        <mxCell id="hGJVld8CSl8fJOH9gkfD-21" style="edgeStyle=orthogonalEdgeStyle;curved=0;rounded=1;sketch=0;orthogonalLoop=1;jettySize=auto;html=1;fontFamily=Verdana;fontColor=#1A1A1A;strokeColor=#182E3E;" edge="1" parent="1" source="hGJVld8CSl8fJOH9gkfD-12" target="hGJVld8CSl8fJOH9gkfD-13">
          <mxGeometry relative="1" as="geometry" />
        </mxCell>
        <mxCell id="hGJVld8CSl8fJOH9gkfD-12" value="&lt;span data-lucid-type=&quot;application/vnd.lucid.text&quot; data-lucid-content=&quot;{&amp;#34;t&amp;#34;:&amp;#34;set starting_poin = 0&amp;#34;,&amp;#34;m&amp;#34;:[{&amp;#34;s&amp;#34;:0,&amp;#34;n&amp;#34;:&amp;#34;a&amp;#34;,&amp;#34;v&amp;#34;:&amp;#34;center&amp;#34;},{&amp;#34;s&amp;#34;:0,&amp;#34;n&amp;#34;:&amp;#34;p&amp;#34;,&amp;#34;v&amp;#34;:1.2},{&amp;#34;s&amp;#34;:0,&amp;#34;n&amp;#34;:&amp;#34;b&amp;#34;,&amp;#34;v&amp;#34;:true,&amp;#34;e&amp;#34;:21},{&amp;#34;s&amp;#34;:0,&amp;#34;n&amp;#34;:&amp;#34;c&amp;#34;,&amp;#34;v&amp;#34;:&amp;#34;3a414aff&amp;#34;,&amp;#34;e&amp;#34;:21},{&amp;#34;s&amp;#34;:0,&amp;#34;n&amp;#34;:&amp;#34;f&amp;#34;,&amp;#34;v&amp;#34;:&amp;#34;Orbitron&amp;#34;,&amp;#34;e&amp;#34;:21},{&amp;#34;s&amp;#34;:0,&amp;#34;n&amp;#34;:&amp;#34;fc&amp;#34;,&amp;#34;v&amp;#34;:&amp;#34;Bold&amp;#34;,&amp;#34;e&amp;#34;:21},{&amp;#34;s&amp;#34;:0,&amp;#34;n&amp;#34;:&amp;#34;fid&amp;#34;,&amp;#34;v&amp;#34;:1706,&amp;#34;e&amp;#34;:21},{&amp;#34;s&amp;#34;:0,&amp;#34;n&amp;#34;:&amp;#34;s&amp;#34;,&amp;#34;v&amp;#34;:22.222222222222218,&amp;#34;e&amp;#34;:21}]}&quot;&gt;&lt;span style=&quot;font-weight: bold ; color: rgb(58 , 65 , 74) ; font-size: 16.6667px&quot;&gt;set milk = 50 * number_of_coffees&lt;/span&gt;&lt;/span&gt;" style="rounded=1;whiteSpace=wrap;html=1;absoluteArcSize=1;arcSize=14;strokeWidth=2;fillColor=#dae8fc;strokeColor=#6c8ebf;labelBackgroundColor=none;labelBorderColor=none;fontFamily=Helvetica;fontSize=14;fontColor=default;sketch=0;" vertex="1" parent="1">
          <mxGeometry x="1051.75" y="499" width="176" height="60" as="geometry" />
        </mxCell>
        <mxCell id="hGJVld8CSl8fJOH9gkfD-22" value="" style="edgeStyle=orthogonalEdgeStyle;curved=0;rounded=1;sketch=0;orthogonalLoop=1;jettySize=auto;html=1;fontFamily=Verdana;fontColor=#1A1A1A;strokeColor=#182E3E;" edge="1" parent="1" source="hGJVld8CSl8fJOH9gkfD-13" target="hGJVld8CSl8fJOH9gkfD-10">
          <mxGeometry relative="1" as="geometry" />
        </mxCell>
        <mxCell id="hGJVld8CSl8fJOH9gkfD-13" value="&lt;span data-lucid-type=&quot;application/vnd.lucid.text&quot; data-lucid-content=&quot;{&amp;#34;t&amp;#34;:&amp;#34;set starting_poin = 0&amp;#34;,&amp;#34;m&amp;#34;:[{&amp;#34;s&amp;#34;:0,&amp;#34;n&amp;#34;:&amp;#34;a&amp;#34;,&amp;#34;v&amp;#34;:&amp;#34;center&amp;#34;},{&amp;#34;s&amp;#34;:0,&amp;#34;n&amp;#34;:&amp;#34;p&amp;#34;,&amp;#34;v&amp;#34;:1.2},{&amp;#34;s&amp;#34;:0,&amp;#34;n&amp;#34;:&amp;#34;b&amp;#34;,&amp;#34;v&amp;#34;:true,&amp;#34;e&amp;#34;:21},{&amp;#34;s&amp;#34;:0,&amp;#34;n&amp;#34;:&amp;#34;c&amp;#34;,&amp;#34;v&amp;#34;:&amp;#34;3a414aff&amp;#34;,&amp;#34;e&amp;#34;:21},{&amp;#34;s&amp;#34;:0,&amp;#34;n&amp;#34;:&amp;#34;f&amp;#34;,&amp;#34;v&amp;#34;:&amp;#34;Orbitron&amp;#34;,&amp;#34;e&amp;#34;:21},{&amp;#34;s&amp;#34;:0,&amp;#34;n&amp;#34;:&amp;#34;fc&amp;#34;,&amp;#34;v&amp;#34;:&amp;#34;Bold&amp;#34;,&amp;#34;e&amp;#34;:21},{&amp;#34;s&amp;#34;:0,&amp;#34;n&amp;#34;:&amp;#34;fid&amp;#34;,&amp;#34;v&amp;#34;:1706,&amp;#34;e&amp;#34;:21},{&amp;#34;s&amp;#34;:0,&amp;#34;n&amp;#34;:&amp;#34;s&amp;#34;,&amp;#34;v&amp;#34;:22.222222222222218,&amp;#34;e&amp;#34;:21}]}&quot;&gt;&lt;span style=&quot;font-weight: bold ; color: rgb(58 , 65 , 74) ; font-size: 16.6667px&quot;&gt;set coffee = 15 * number_of_coffees&lt;/span&gt;&lt;/span&gt;" style="rounded=1;whiteSpace=wrap;html=1;absoluteArcSize=1;arcSize=14;strokeWidth=2;fillColor=#dae8fc;strokeColor=#6c8ebf;labelBackgroundColor=none;labelBorderColor=none;fontFamily=Helvetica;fontSize=14;fontColor=default;sketch=0;" vertex="1" parent="1">
          <mxGeometry x="1051.75" y="588" width="176" height="60" as="geometry" />
        </mxCell>
        <mxCell id="hGJVld8CSl8fJOH9gkfD-28" style="edgeStyle=orthogonalEdgeStyle;curved=0;rounded=1;sketch=0;orthogonalLoop=1;jettySize=auto;html=1;fontFamily=Verdana;fontColor=#1A1A1A;strokeColor=#182E3E;" edge="1" parent="1" source="hGJVld8CSl8fJOH9gkfD-23" target="hGJVld8CSl8fJOH9gkfD-25">
          <mxGeometry relative="1" as="geometry" />
        </mxCell>
        <mxCell id="hGJVld8CSl8fJOH9gkfD-23" value="&lt;span data-lucid-type=&quot;application/vnd.lucid.text&quot; data-lucid-content=&quot;{&amp;#34;t&amp;#34;:&amp;#34;print(&#39;Hello {name}&#39;)&amp;#34;,&amp;#34;m&amp;#34;:[{&amp;#34;s&amp;#34;:0,&amp;#34;n&amp;#34;:&amp;#34;a&amp;#34;,&amp;#34;v&amp;#34;:&amp;#34;center&amp;#34;},{&amp;#34;s&amp;#34;:0,&amp;#34;n&amp;#34;:&amp;#34;f&amp;#34;,&amp;#34;v&amp;#34;:&amp;#34;Orbitron&amp;#34;,&amp;#34;e&amp;#34;:21},{&amp;#34;s&amp;#34;:0,&amp;#34;n&amp;#34;:&amp;#34;fc&amp;#34;,&amp;#34;v&amp;#34;:&amp;#34;Bold&amp;#34;,&amp;#34;e&amp;#34;:21},{&amp;#34;s&amp;#34;:0,&amp;#34;n&amp;#34;:&amp;#34;fid&amp;#34;,&amp;#34;v&amp;#34;:1706,&amp;#34;e&amp;#34;:21},{&amp;#34;s&amp;#34;:0,&amp;#34;n&amp;#34;:&amp;#34;b&amp;#34;,&amp;#34;v&amp;#34;:true,&amp;#34;e&amp;#34;:21},{&amp;#34;s&amp;#34;:0,&amp;#34;n&amp;#34;:&amp;#34;s&amp;#34;,&amp;#34;v&amp;#34;:22.222222222222218,&amp;#34;e&amp;#34;:21},{&amp;#34;s&amp;#34;:0,&amp;#34;n&amp;#34;:&amp;#34;c&amp;#34;,&amp;#34;v&amp;#34;:&amp;#34;3a414aff&amp;#34;,&amp;#34;e&amp;#34;:21}]}&quot;&gt;&lt;span style=&quot;font-weight: bold ; font-size: 16.6667px ; color: rgb(58 , 65 , 74)&quot;&gt;print(&#39;&lt;/span&gt;&lt;span style=&quot;color: rgb(0 , 0 , 0) ; font-size: 14px ; letter-spacing: 0.1px ; text-align: left&quot;&gt;Write&amp;nbsp;how&amp;nbsp;many&amp;nbsp;ml&amp;nbsp;of&lt;br&gt;water&amp;nbsp;the&amp;nbsp;coffee&amp;nbsp;machine&amp;nbsp;has:&lt;/span&gt;&lt;font face=&quot;Verdana&quot;&gt;&lt;span style=&quot;font-weight: bold ; font-size: 16.6667px ; color: rgb(58 , 65 , 74)&quot;&gt;&#39;)&lt;/span&gt;&lt;/font&gt;&lt;/span&gt;" style="shape=parallelogram;html=1;strokeWidth=2;perimeter=parallelogramPerimeter;whiteSpace=wrap;rounded=1;arcSize=12;size=0.23;labelBackgroundColor=none;labelBorderColor=none;comic=0;fontFamily=Helvetica;fontSize=12;fillColor=#dae8fc;strokeColor=#6c8ebf;sketch=0;fontColor=#1A1A1A;spacing=0;spacingLeft=-17;" vertex="1" parent="1">
          <mxGeometry x="-1107" y="352" width="332" height="45" as="geometry" />
        </mxCell>
        <mxCell id="hGJVld8CSl8fJOH9gkfD-24" value="" style="edgeStyle=orthogonalEdgeStyle;curved=0;rounded=1;sketch=0;orthogonalLoop=1;jettySize=auto;html=1;fontFamily=Verdana;fontColor=#1A1A1A;strokeColor=#182E3E;" edge="1" source="hGJVld8CSl8fJOH9gkfD-25" target="hGJVld8CSl8fJOH9gkfD-26" parent="1">
          <mxGeometry relative="1" as="geometry" />
        </mxCell>
        <mxCell id="hGJVld8CSl8fJOH9gkfD-25" value="&lt;span data-lucid-type=&quot;application/vnd.lucid.text&quot; data-lucid-content=&quot;{&amp;#34;t&amp;#34;:&amp;#34;print(&#39;Hello {name}&#39;)&amp;#34;,&amp;#34;m&amp;#34;:[{&amp;#34;s&amp;#34;:0,&amp;#34;n&amp;#34;:&amp;#34;a&amp;#34;,&amp;#34;v&amp;#34;:&amp;#34;center&amp;#34;},{&amp;#34;s&amp;#34;:0,&amp;#34;n&amp;#34;:&amp;#34;f&amp;#34;,&amp;#34;v&amp;#34;:&amp;#34;Orbitron&amp;#34;,&amp;#34;e&amp;#34;:21},{&amp;#34;s&amp;#34;:0,&amp;#34;n&amp;#34;:&amp;#34;fc&amp;#34;,&amp;#34;v&amp;#34;:&amp;#34;Bold&amp;#34;,&amp;#34;e&amp;#34;:21},{&amp;#34;s&amp;#34;:0,&amp;#34;n&amp;#34;:&amp;#34;fid&amp;#34;,&amp;#34;v&amp;#34;:1706,&amp;#34;e&amp;#34;:21},{&amp;#34;s&amp;#34;:0,&amp;#34;n&amp;#34;:&amp;#34;b&amp;#34;,&amp;#34;v&amp;#34;:true,&amp;#34;e&amp;#34;:21},{&amp;#34;s&amp;#34;:0,&amp;#34;n&amp;#34;:&amp;#34;s&amp;#34;,&amp;#34;v&amp;#34;:22.222222222222218,&amp;#34;e&amp;#34;:21},{&amp;#34;s&amp;#34;:0,&amp;#34;n&amp;#34;:&amp;#34;c&amp;#34;,&amp;#34;v&amp;#34;:&amp;#34;3a414aff&amp;#34;,&amp;#34;e&amp;#34;:21}]}&quot;&gt;&lt;span style=&quot;font-weight: bold ; font-size: 16.6667px ; color: rgb(58 , 65 , 74)&quot;&gt;read input&lt;/span&gt;&lt;/span&gt;" style="shape=parallelogram;html=1;strokeWidth=2;perimeter=parallelogramPerimeter;whiteSpace=wrap;rounded=1;arcSize=12;size=0.23;labelBackgroundColor=none;labelBorderColor=none;comic=0;fontFamily=Helvetica;fontSize=12;fillColor=#dae8fc;strokeColor=#6c8ebf;sketch=0;fontColor=#1A1A1A;" vertex="1" parent="1">
          <mxGeometry x="-1071.5" y="440" width="261" height="33" as="geometry" />
        </mxCell>
        <mxCell id="hGJVld8CSl8fJOH9gkfD-50" value="" style="edgeStyle=orthogonalEdgeStyle;curved=0;rounded=1;sketch=0;orthogonalLoop=1;jettySize=auto;html=1;fontFamily=Verdana;fontColor=#1A1A1A;strokeColor=#182E3E;" edge="1" parent="1" source="hGJVld8CSl8fJOH9gkfD-26" target="hGJVld8CSl8fJOH9gkfD-31">
          <mxGeometry relative="1" as="geometry" />
        </mxCell>
        <mxCell id="hGJVld8CSl8fJOH9gkfD-26" value="&lt;span data-lucid-type=&quot;application/vnd.lucid.text&quot; data-lucid-content=&quot;{&amp;#34;t&amp;#34;:&amp;#34;set starting_poin = 0&amp;#34;,&amp;#34;m&amp;#34;:[{&amp;#34;s&amp;#34;:0,&amp;#34;n&amp;#34;:&amp;#34;a&amp;#34;,&amp;#34;v&amp;#34;:&amp;#34;center&amp;#34;},{&amp;#34;s&amp;#34;:0,&amp;#34;n&amp;#34;:&amp;#34;p&amp;#34;,&amp;#34;v&amp;#34;:1.2},{&amp;#34;s&amp;#34;:0,&amp;#34;n&amp;#34;:&amp;#34;b&amp;#34;,&amp;#34;v&amp;#34;:true,&amp;#34;e&amp;#34;:21},{&amp;#34;s&amp;#34;:0,&amp;#34;n&amp;#34;:&amp;#34;c&amp;#34;,&amp;#34;v&amp;#34;:&amp;#34;3a414aff&amp;#34;,&amp;#34;e&amp;#34;:21},{&amp;#34;s&amp;#34;:0,&amp;#34;n&amp;#34;:&amp;#34;f&amp;#34;,&amp;#34;v&amp;#34;:&amp;#34;Orbitron&amp;#34;,&amp;#34;e&amp;#34;:21},{&amp;#34;s&amp;#34;:0,&amp;#34;n&amp;#34;:&amp;#34;fc&amp;#34;,&amp;#34;v&amp;#34;:&amp;#34;Bold&amp;#34;,&amp;#34;e&amp;#34;:21},{&amp;#34;s&amp;#34;:0,&amp;#34;n&amp;#34;:&amp;#34;fid&amp;#34;,&amp;#34;v&amp;#34;:1706,&amp;#34;e&amp;#34;:21},{&amp;#34;s&amp;#34;:0,&amp;#34;n&amp;#34;:&amp;#34;s&amp;#34;,&amp;#34;v&amp;#34;:22.222222222222218,&amp;#34;e&amp;#34;:21}]}&quot;&gt;&lt;span style=&quot;font-weight: bold ; color: rgb(58 , 65 , 74) ; font-size: 16.6667px&quot;&gt;set input to current_water&lt;/span&gt;&lt;/span&gt;" style="rounded=1;whiteSpace=wrap;html=1;absoluteArcSize=1;arcSize=14;strokeWidth=2;fillColor=#dae8fc;strokeColor=#6c8ebf;labelBackgroundColor=none;labelBorderColor=none;fontFamily=Helvetica;fontSize=14;fontColor=default;sketch=0;" vertex="1" parent="1">
          <mxGeometry x="-1029" y="507" width="176" height="60" as="geometry" />
        </mxCell>
        <mxCell id="hGJVld8CSl8fJOH9gkfD-30" style="edgeStyle=orthogonalEdgeStyle;curved=0;rounded=1;sketch=0;orthogonalLoop=1;jettySize=auto;html=1;fontFamily=Verdana;fontColor=#1A1A1A;strokeColor=#182E3E;" edge="1" source="hGJVld8CSl8fJOH9gkfD-31" target="hGJVld8CSl8fJOH9gkfD-33" parent="1">
          <mxGeometry relative="1" as="geometry" />
        </mxCell>
        <mxCell id="hGJVld8CSl8fJOH9gkfD-31" value="&lt;span data-lucid-type=&quot;application/vnd.lucid.text&quot; data-lucid-content=&quot;{&amp;#34;t&amp;#34;:&amp;#34;print(&#39;Hello {name}&#39;)&amp;#34;,&amp;#34;m&amp;#34;:[{&amp;#34;s&amp;#34;:0,&amp;#34;n&amp;#34;:&amp;#34;a&amp;#34;,&amp;#34;v&amp;#34;:&amp;#34;center&amp;#34;},{&amp;#34;s&amp;#34;:0,&amp;#34;n&amp;#34;:&amp;#34;f&amp;#34;,&amp;#34;v&amp;#34;:&amp;#34;Orbitron&amp;#34;,&amp;#34;e&amp;#34;:21},{&amp;#34;s&amp;#34;:0,&amp;#34;n&amp;#34;:&amp;#34;fc&amp;#34;,&amp;#34;v&amp;#34;:&amp;#34;Bold&amp;#34;,&amp;#34;e&amp;#34;:21},{&amp;#34;s&amp;#34;:0,&amp;#34;n&amp;#34;:&amp;#34;fid&amp;#34;,&amp;#34;v&amp;#34;:1706,&amp;#34;e&amp;#34;:21},{&amp;#34;s&amp;#34;:0,&amp;#34;n&amp;#34;:&amp;#34;b&amp;#34;,&amp;#34;v&amp;#34;:true,&amp;#34;e&amp;#34;:21},{&amp;#34;s&amp;#34;:0,&amp;#34;n&amp;#34;:&amp;#34;s&amp;#34;,&amp;#34;v&amp;#34;:22.222222222222218,&amp;#34;e&amp;#34;:21},{&amp;#34;s&amp;#34;:0,&amp;#34;n&amp;#34;:&amp;#34;c&amp;#34;,&amp;#34;v&amp;#34;:&amp;#34;3a414aff&amp;#34;,&amp;#34;e&amp;#34;:21}]}&quot;&gt;&lt;span style=&quot;font-weight: bold ; font-size: 16.6667px ; color: rgb(58 , 65 , 74)&quot;&gt;print(&#39;&lt;/span&gt;&lt;span style=&quot;color: rgb(0 , 0 , 0) ; font-size: 14px ; letter-spacing: 0.1px ; text-align: left&quot;&gt;Write&amp;nbsp;how&amp;nbsp;many&amp;nbsp;ml&amp;nbsp;of&lt;br&gt;milk&amp;nbsp;the&amp;nbsp;coffee&amp;nbsp;machine&amp;nbsp;has:&lt;/span&gt;&lt;font face=&quot;Verdana&quot;&gt;&lt;span style=&quot;font-weight: bold ; font-size: 16.6667px ; color: rgb(58 , 65 , 74)&quot;&gt;&#39;)&lt;/span&gt;&lt;/font&gt;&lt;/span&gt;" style="shape=parallelogram;html=1;strokeWidth=2;perimeter=parallelogramPerimeter;whiteSpace=wrap;rounded=1;arcSize=12;size=0.23;labelBackgroundColor=none;labelBorderColor=none;comic=0;fontFamily=Helvetica;fontSize=12;fillColor=#dae8fc;strokeColor=#6c8ebf;sketch=0;fontColor=#1A1A1A;spacing=0;spacingLeft=-17;" vertex="1" parent="1">
          <mxGeometry x="-1107" y="607" width="332" height="45" as="geometry" />
        </mxCell>
        <mxCell id="hGJVld8CSl8fJOH9gkfD-32" value="" style="edgeStyle=orthogonalEdgeStyle;curved=0;rounded=1;sketch=0;orthogonalLoop=1;jettySize=auto;html=1;fontFamily=Verdana;fontColor=#1A1A1A;strokeColor=#182E3E;" edge="1" source="hGJVld8CSl8fJOH9gkfD-33" target="hGJVld8CSl8fJOH9gkfD-34" parent="1">
          <mxGeometry relative="1" as="geometry" />
        </mxCell>
        <mxCell id="hGJVld8CSl8fJOH9gkfD-33" value="&lt;span data-lucid-type=&quot;application/vnd.lucid.text&quot; data-lucid-content=&quot;{&amp;#34;t&amp;#34;:&amp;#34;print(&#39;Hello {name}&#39;)&amp;#34;,&amp;#34;m&amp;#34;:[{&amp;#34;s&amp;#34;:0,&amp;#34;n&amp;#34;:&amp;#34;a&amp;#34;,&amp;#34;v&amp;#34;:&amp;#34;center&amp;#34;},{&amp;#34;s&amp;#34;:0,&amp;#34;n&amp;#34;:&amp;#34;f&amp;#34;,&amp;#34;v&amp;#34;:&amp;#34;Orbitron&amp;#34;,&amp;#34;e&amp;#34;:21},{&amp;#34;s&amp;#34;:0,&amp;#34;n&amp;#34;:&amp;#34;fc&amp;#34;,&amp;#34;v&amp;#34;:&amp;#34;Bold&amp;#34;,&amp;#34;e&amp;#34;:21},{&amp;#34;s&amp;#34;:0,&amp;#34;n&amp;#34;:&amp;#34;fid&amp;#34;,&amp;#34;v&amp;#34;:1706,&amp;#34;e&amp;#34;:21},{&amp;#34;s&amp;#34;:0,&amp;#34;n&amp;#34;:&amp;#34;b&amp;#34;,&amp;#34;v&amp;#34;:true,&amp;#34;e&amp;#34;:21},{&amp;#34;s&amp;#34;:0,&amp;#34;n&amp;#34;:&amp;#34;s&amp;#34;,&amp;#34;v&amp;#34;:22.222222222222218,&amp;#34;e&amp;#34;:21},{&amp;#34;s&amp;#34;:0,&amp;#34;n&amp;#34;:&amp;#34;c&amp;#34;,&amp;#34;v&amp;#34;:&amp;#34;3a414aff&amp;#34;,&amp;#34;e&amp;#34;:21}]}&quot;&gt;&lt;span style=&quot;font-weight: bold ; font-size: 16.6667px ; color: rgb(58 , 65 , 74)&quot;&gt;read input&lt;/span&gt;&lt;/span&gt;" style="shape=parallelogram;html=1;strokeWidth=2;perimeter=parallelogramPerimeter;whiteSpace=wrap;rounded=1;arcSize=12;size=0.23;labelBackgroundColor=none;labelBorderColor=none;comic=0;fontFamily=Helvetica;fontSize=12;fillColor=#dae8fc;strokeColor=#6c8ebf;sketch=0;fontColor=#1A1A1A;" vertex="1" parent="1">
          <mxGeometry x="-1071.5" y="695" width="261" height="33" as="geometry" />
        </mxCell>
        <mxCell id="hGJVld8CSl8fJOH9gkfD-43" value="" style="edgeStyle=orthogonalEdgeStyle;curved=0;rounded=1;sketch=0;orthogonalLoop=1;jettySize=auto;html=1;fontFamily=Verdana;fontColor=#1A1A1A;strokeColor=#182E3E;" edge="1" parent="1" source="hGJVld8CSl8fJOH9gkfD-34" target="hGJVld8CSl8fJOH9gkfD-36">
          <mxGeometry relative="1" as="geometry" />
        </mxCell>
        <mxCell id="hGJVld8CSl8fJOH9gkfD-34" value="&lt;span data-lucid-type=&quot;application/vnd.lucid.text&quot; data-lucid-content=&quot;{&amp;#34;t&amp;#34;:&amp;#34;set starting_poin = 0&amp;#34;,&amp;#34;m&amp;#34;:[{&amp;#34;s&amp;#34;:0,&amp;#34;n&amp;#34;:&amp;#34;a&amp;#34;,&amp;#34;v&amp;#34;:&amp;#34;center&amp;#34;},{&amp;#34;s&amp;#34;:0,&amp;#34;n&amp;#34;:&amp;#34;p&amp;#34;,&amp;#34;v&amp;#34;:1.2},{&amp;#34;s&amp;#34;:0,&amp;#34;n&amp;#34;:&amp;#34;b&amp;#34;,&amp;#34;v&amp;#34;:true,&amp;#34;e&amp;#34;:21},{&amp;#34;s&amp;#34;:0,&amp;#34;n&amp;#34;:&amp;#34;c&amp;#34;,&amp;#34;v&amp;#34;:&amp;#34;3a414aff&amp;#34;,&amp;#34;e&amp;#34;:21},{&amp;#34;s&amp;#34;:0,&amp;#34;n&amp;#34;:&amp;#34;f&amp;#34;,&amp;#34;v&amp;#34;:&amp;#34;Orbitron&amp;#34;,&amp;#34;e&amp;#34;:21},{&amp;#34;s&amp;#34;:0,&amp;#34;n&amp;#34;:&amp;#34;fc&amp;#34;,&amp;#34;v&amp;#34;:&amp;#34;Bold&amp;#34;,&amp;#34;e&amp;#34;:21},{&amp;#34;s&amp;#34;:0,&amp;#34;n&amp;#34;:&amp;#34;fid&amp;#34;,&amp;#34;v&amp;#34;:1706,&amp;#34;e&amp;#34;:21},{&amp;#34;s&amp;#34;:0,&amp;#34;n&amp;#34;:&amp;#34;s&amp;#34;,&amp;#34;v&amp;#34;:22.222222222222218,&amp;#34;e&amp;#34;:21}]}&quot;&gt;&lt;span style=&quot;font-weight: bold ; color: rgb(58 , 65 , 74) ; font-size: 16.6667px&quot;&gt;set input to current_milk&lt;/span&gt;&lt;/span&gt;" style="rounded=1;whiteSpace=wrap;html=1;absoluteArcSize=1;arcSize=14;strokeWidth=2;fillColor=#dae8fc;strokeColor=#6c8ebf;labelBackgroundColor=none;labelBorderColor=none;fontFamily=Helvetica;fontSize=14;fontColor=default;sketch=0;" vertex="1" parent="1">
          <mxGeometry x="-1029" y="762" width="176" height="60" as="geometry" />
        </mxCell>
        <mxCell id="hGJVld8CSl8fJOH9gkfD-40" style="edgeStyle=orthogonalEdgeStyle;curved=0;rounded=1;sketch=0;orthogonalLoop=1;jettySize=auto;html=1;entryX=0.5;entryY=0;entryDx=0;entryDy=0;fontFamily=Verdana;fontColor=#1A1A1A;strokeColor=#182E3E;" edge="1" parent="1" source="hGJVld8CSl8fJOH9gkfD-36" target="hGJVld8CSl8fJOH9gkfD-38">
          <mxGeometry relative="1" as="geometry" />
        </mxCell>
        <mxCell id="hGJVld8CSl8fJOH9gkfD-36" value="&lt;span data-lucid-type=&quot;application/vnd.lucid.text&quot; data-lucid-content=&quot;{&amp;#34;t&amp;#34;:&amp;#34;print(&#39;Hello {name}&#39;)&amp;#34;,&amp;#34;m&amp;#34;:[{&amp;#34;s&amp;#34;:0,&amp;#34;n&amp;#34;:&amp;#34;a&amp;#34;,&amp;#34;v&amp;#34;:&amp;#34;center&amp;#34;},{&amp;#34;s&amp;#34;:0,&amp;#34;n&amp;#34;:&amp;#34;f&amp;#34;,&amp;#34;v&amp;#34;:&amp;#34;Orbitron&amp;#34;,&amp;#34;e&amp;#34;:21},{&amp;#34;s&amp;#34;:0,&amp;#34;n&amp;#34;:&amp;#34;fc&amp;#34;,&amp;#34;v&amp;#34;:&amp;#34;Bold&amp;#34;,&amp;#34;e&amp;#34;:21},{&amp;#34;s&amp;#34;:0,&amp;#34;n&amp;#34;:&amp;#34;fid&amp;#34;,&amp;#34;v&amp;#34;:1706,&amp;#34;e&amp;#34;:21},{&amp;#34;s&amp;#34;:0,&amp;#34;n&amp;#34;:&amp;#34;b&amp;#34;,&amp;#34;v&amp;#34;:true,&amp;#34;e&amp;#34;:21},{&amp;#34;s&amp;#34;:0,&amp;#34;n&amp;#34;:&amp;#34;s&amp;#34;,&amp;#34;v&amp;#34;:22.222222222222218,&amp;#34;e&amp;#34;:21},{&amp;#34;s&amp;#34;:0,&amp;#34;n&amp;#34;:&amp;#34;c&amp;#34;,&amp;#34;v&amp;#34;:&amp;#34;3a414aff&amp;#34;,&amp;#34;e&amp;#34;:21}]}&quot;&gt;&lt;span style=&quot;font-weight: bold ; font-size: 16.6667px ; color: rgb(58 , 65 , 74)&quot;&gt;print(&#39;&lt;/span&gt;&lt;span class=&quot;mtk1&quot; style=&quot;box-sizing: border-box ; color: rgb(0 , 0 , 0) ; font-size: 14px ; letter-spacing: 0.1px ; text-align: left&quot;&gt;Write&amp;nbsp;how&amp;nbsp;many&amp;nbsp;grams&amp;nbsp;of&lt;br&gt;coffee&amp;nbsp;beans&amp;nbsp;the&amp;nbsp;coffee&amp;nbsp;ma&lt;/span&gt;&lt;span class=&quot;mtk1&quot; style=&quot;box-sizing: border-box ; color: rgb(0 , 0 , 0) ; font-size: 14px ; letter-spacing: 0.1px ; text-align: left&quot;&gt;chine&amp;nbsp;has:&lt;/span&gt;&lt;font face=&quot;Verdana&quot;&gt;&lt;span style=&quot;font-weight: bold ; font-size: 16.6667px ; color: rgb(58 , 65 , 74)&quot;&gt;&#39;)&lt;/span&gt;&lt;/font&gt;&lt;/span&gt;" style="shape=parallelogram;html=1;strokeWidth=2;perimeter=parallelogramPerimeter;whiteSpace=wrap;rounded=1;arcSize=12;size=0.23;labelBackgroundColor=none;labelBorderColor=none;comic=0;fontFamily=Helvetica;fontSize=12;fillColor=#dae8fc;strokeColor=#6c8ebf;sketch=0;fontColor=#1A1A1A;spacing=0;spacingLeft=-28;" vertex="1" parent="1">
          <mxGeometry x="-1126" y="869" width="372" height="45" as="geometry" />
        </mxCell>
        <mxCell id="hGJVld8CSl8fJOH9gkfD-45" value="" style="edgeStyle=orthogonalEdgeStyle;curved=0;rounded=1;sketch=0;orthogonalLoop=1;jettySize=auto;html=1;fontFamily=Verdana;fontColor=#1A1A1A;strokeColor=#182E3E;" edge="1" parent="1" source="hGJVld8CSl8fJOH9gkfD-38" target="hGJVld8CSl8fJOH9gkfD-39">
          <mxGeometry relative="1" as="geometry" />
        </mxCell>
        <mxCell id="hGJVld8CSl8fJOH9gkfD-38" value="&lt;span data-lucid-type=&quot;application/vnd.lucid.text&quot; data-lucid-content=&quot;{&amp;#34;t&amp;#34;:&amp;#34;print(&#39;Hello {name}&#39;)&amp;#34;,&amp;#34;m&amp;#34;:[{&amp;#34;s&amp;#34;:0,&amp;#34;n&amp;#34;:&amp;#34;a&amp;#34;,&amp;#34;v&amp;#34;:&amp;#34;center&amp;#34;},{&amp;#34;s&amp;#34;:0,&amp;#34;n&amp;#34;:&amp;#34;f&amp;#34;,&amp;#34;v&amp;#34;:&amp;#34;Orbitron&amp;#34;,&amp;#34;e&amp;#34;:21},{&amp;#34;s&amp;#34;:0,&amp;#34;n&amp;#34;:&amp;#34;fc&amp;#34;,&amp;#34;v&amp;#34;:&amp;#34;Bold&amp;#34;,&amp;#34;e&amp;#34;:21},{&amp;#34;s&amp;#34;:0,&amp;#34;n&amp;#34;:&amp;#34;fid&amp;#34;,&amp;#34;v&amp;#34;:1706,&amp;#34;e&amp;#34;:21},{&amp;#34;s&amp;#34;:0,&amp;#34;n&amp;#34;:&amp;#34;b&amp;#34;,&amp;#34;v&amp;#34;:true,&amp;#34;e&amp;#34;:21},{&amp;#34;s&amp;#34;:0,&amp;#34;n&amp;#34;:&amp;#34;s&amp;#34;,&amp;#34;v&amp;#34;:22.222222222222218,&amp;#34;e&amp;#34;:21},{&amp;#34;s&amp;#34;:0,&amp;#34;n&amp;#34;:&amp;#34;c&amp;#34;,&amp;#34;v&amp;#34;:&amp;#34;3a414aff&amp;#34;,&amp;#34;e&amp;#34;:21}]}&quot;&gt;&lt;span style=&quot;font-weight: bold ; font-size: 16.6667px ; color: rgb(58 , 65 , 74)&quot;&gt;read input&lt;/span&gt;&lt;/span&gt;" style="shape=parallelogram;html=1;strokeWidth=2;perimeter=parallelogramPerimeter;whiteSpace=wrap;rounded=1;arcSize=12;size=0.23;labelBackgroundColor=none;labelBorderColor=none;comic=0;fontFamily=Helvetica;fontSize=12;fillColor=#dae8fc;strokeColor=#6c8ebf;sketch=0;fontColor=#1A1A1A;" vertex="1" parent="1">
          <mxGeometry x="-1070.5" y="957" width="261" height="33" as="geometry" />
        </mxCell>
        <mxCell id="hGJVld8CSl8fJOH9gkfD-47" value="" style="edgeStyle=orthogonalEdgeStyle;curved=0;rounded=1;sketch=0;orthogonalLoop=1;jettySize=auto;html=1;fontFamily=Verdana;fontColor=#1A1A1A;strokeColor=#182E3E;" edge="1" parent="1" source="hGJVld8CSl8fJOH9gkfD-39" target="hGJVld8CSl8fJOH9gkfD-2">
          <mxGeometry relative="1" as="geometry" />
        </mxCell>
        <mxCell id="hGJVld8CSl8fJOH9gkfD-39" value="&lt;span data-lucid-type=&quot;application/vnd.lucid.text&quot; data-lucid-content=&quot;{&amp;#34;t&amp;#34;:&amp;#34;set starting_poin = 0&amp;#34;,&amp;#34;m&amp;#34;:[{&amp;#34;s&amp;#34;:0,&amp;#34;n&amp;#34;:&amp;#34;a&amp;#34;,&amp;#34;v&amp;#34;:&amp;#34;center&amp;#34;},{&amp;#34;s&amp;#34;:0,&amp;#34;n&amp;#34;:&amp;#34;p&amp;#34;,&amp;#34;v&amp;#34;:1.2},{&amp;#34;s&amp;#34;:0,&amp;#34;n&amp;#34;:&amp;#34;b&amp;#34;,&amp;#34;v&amp;#34;:true,&amp;#34;e&amp;#34;:21},{&amp;#34;s&amp;#34;:0,&amp;#34;n&amp;#34;:&amp;#34;c&amp;#34;,&amp;#34;v&amp;#34;:&amp;#34;3a414aff&amp;#34;,&amp;#34;e&amp;#34;:21},{&amp;#34;s&amp;#34;:0,&amp;#34;n&amp;#34;:&amp;#34;f&amp;#34;,&amp;#34;v&amp;#34;:&amp;#34;Orbitron&amp;#34;,&amp;#34;e&amp;#34;:21},{&amp;#34;s&amp;#34;:0,&amp;#34;n&amp;#34;:&amp;#34;fc&amp;#34;,&amp;#34;v&amp;#34;:&amp;#34;Bold&amp;#34;,&amp;#34;e&amp;#34;:21},{&amp;#34;s&amp;#34;:0,&amp;#34;n&amp;#34;:&amp;#34;fid&amp;#34;,&amp;#34;v&amp;#34;:1706,&amp;#34;e&amp;#34;:21},{&amp;#34;s&amp;#34;:0,&amp;#34;n&amp;#34;:&amp;#34;s&amp;#34;,&amp;#34;v&amp;#34;:22.222222222222218,&amp;#34;e&amp;#34;:21}]}&quot;&gt;&lt;span style=&quot;font-weight: bold ; color: rgb(58 , 65 , 74) ; font-size: 16.6667px&quot;&gt;set input to current_coffee_beans&lt;br&gt;&lt;/span&gt;&lt;/span&gt;" style="rounded=1;whiteSpace=wrap;html=1;absoluteArcSize=1;arcSize=14;strokeWidth=2;fillColor=#dae8fc;strokeColor=#6c8ebf;labelBackgroundColor=none;labelBorderColor=none;fontFamily=Helvetica;fontSize=14;fontColor=default;sketch=0;" vertex="1" parent="1">
          <mxGeometry x="-1038" y="1024" width="196" height="60" as="geometry" />
        </mxCell>
        <mxCell id="hGJVld8CSl8fJOH9gkfD-46" value="&lt;span data-lucid-type=&quot;application/vnd.lucid.text&quot; data-lucid-content=&quot;{&amp;#34;t&amp;#34;:&amp;#34;def check_user_action()&amp;#34;,&amp;#34;m&amp;#34;:[{&amp;#34;s&amp;#34;:0,&amp;#34;n&amp;#34;:&amp;#34;a&amp;#34;,&amp;#34;v&amp;#34;:&amp;#34;center&amp;#34;},{&amp;#34;s&amp;#34;:0,&amp;#34;n&amp;#34;:&amp;#34;b&amp;#34;,&amp;#34;v&amp;#34;:true,&amp;#34;e&amp;#34;:23},{&amp;#34;s&amp;#34;:0,&amp;#34;n&amp;#34;:&amp;#34;c&amp;#34;,&amp;#34;v&amp;#34;:&amp;#34;3a414aff&amp;#34;,&amp;#34;e&amp;#34;:23},{&amp;#34;s&amp;#34;:0,&amp;#34;n&amp;#34;:&amp;#34;f&amp;#34;,&amp;#34;v&amp;#34;:&amp;#34;Orbitron&amp;#34;,&amp;#34;e&amp;#34;:23},{&amp;#34;s&amp;#34;:0,&amp;#34;n&amp;#34;:&amp;#34;fc&amp;#34;,&amp;#34;v&amp;#34;:&amp;#34;Bold&amp;#34;,&amp;#34;e&amp;#34;:23},{&amp;#34;s&amp;#34;:0,&amp;#34;n&amp;#34;:&amp;#34;fid&amp;#34;,&amp;#34;v&amp;#34;:1706,&amp;#34;e&amp;#34;:23},{&amp;#34;s&amp;#34;:0,&amp;#34;n&amp;#34;:&amp;#34;s&amp;#34;,&amp;#34;v&amp;#34;:22.222222222222218,&amp;#34;e&amp;#34;:23}]}&quot;&gt;&lt;span style=&quot;font-weight: bold ; color: rgb(58 , 65 , 74) ; font-size: 16.6667px&quot;&gt;def check_user_action()&lt;/span&gt;&lt;/span&gt;" style="verticalLabelPosition=middle;verticalAlign=middle;html=1;shape=process;whiteSpace=wrap;rounded=1;size=0.14;arcSize=6;labelPosition=center;align=center;fillColor=#e1d5e7;strokeColor=#9673a6;labelBackgroundColor=none;labelBorderColor=none;sketch=0;fontFamily=Verdana;fontColor=#1A1A1A;" vertex="1" parent="1">
          <mxGeometry x="-1023" y="150" width="172" height="90" as="geometry" />
        </mxCell>
      </root>
    </mxGraphModel>
  </diagram>
</mxfile>
